<svg version="1.2" xmlns="http://www.w3.org/2000/svg" viewBox="0 0 42 42" width="42" height="42">
	<title>transaction-type-icon-01-svg</title>
	<style>
		.s0 { fill: #4ab5e3 } 
	</style>
	<g id="Layer" style="opacity: .1">
		<path id="Layer" class="s0" d="m1 9c0-4.4 3.6-8 8-8h24c4.4 0 8 3.6 8 8v24c0 4.4-3.6 8-8 8h-24c-4.4 0-8-3.6-8-8z"/>
	</g>
	<path id="Layer" fill-rule="evenodd" class="s0" d="m17.8 15.9c0-2.7 2.3-4.9 5-4.9 2.7 0 4.9 2.2 4.9 4.9 0 2.8-2.2 5-4.9 5-2.7 0-5-2.2-5-5zm3.2-1.3c0 0.4 0.2 0.9 0.6 1.2l1.2 0.9 0.5 0.3q0.1 0.1 0.1 0.3c0 0.2-0.1 0.4-0.3 0.4-0.4 0-0.2 0-0.6 0-0.2 0-0.3-0.2-0.3-0.4 0-0.3-0.3-0.5-0.6-0.5-0.4 0-0.6 0.2-0.6 0.6 0 0.4 0.1 0.8 0.4 1q0.4 0.4 0.8 0.5v0.1c0 0.3 0.3 0.6 0.6 0.6 0.3 0 0.6-0.3 0.6-0.6v-0.1q0.4-0.1 0.8-0.5c0.2-0.3 0.4-0.7 0.4-1.1 0-0.5-0.2-0.9-0.6-1.2l-1.2-0.9-0.5-0.3q-0.1-0.2-0.1-0.3c0-0.3 0.1-0.4 0.3-0.4h0.6c0.2 0 0.3 0.1 0.3 0.4 0 0.3 0.3 0.5 0.6 0.5 0.3 0 0.6-0.2 0.6-0.5 0-0.8-0.5-1.4-1.2-1.6v-0.1c0-0.3-0.3-0.6-0.6-0.6-0.3 0-0.6 0.3-0.6 0.6v0.1c-0.7 0.2-1.2 0.8-1.2 1.6z"/>
	<path id="Layer" class="s0" d="m14.8 23.7c-0.2-0.3-0.5-0.3-0.8-0.2l-2.7 1.6c-0.3 0.2-0.4 0.5-0.2 0.7l2.8 4.9c0.1 0.3 0.5 0.4 0.7 0.2l2.8-1.6c0.3-0.1 0.3-0.5 0.2-0.7z"/>
	<path id="Layer" class="s0" d="m30.6 22.7c-0.3-0.3-0.8-0.4-1.2-0.2-1.1 0.9-3.2 2.4-3.4 2.5q-0.1 0.1-0.3 0.2-0.5 0.3-1.1 0.3h-2.8c-0.3 0-0.6-0.2-0.6-0.6 0-0.3 0.3-0.5 0.6-0.5h3c0.4 0 0.8-0.4 0.8-0.9 0-0.4-0.4-0.7-0.8-0.7h-2.3q-0.2-0.2-0.5-0.4c-0.6-0.5-1.4-0.8-2.2-0.8-1.5 0-3 1-3.6 2.2l2.4 4.2h4.5c0.9 0 1.7-0.3 2.5-0.7q0.4-0.2 0.9-0.6c1.2-0.9 3.9-2.8 3.9-2.8 0.3-0.3 0.4-0.8 0.2-1.2z"/>
</svg>