<svg version="1.2" xmlns="http://www.w3.org/2000/svg" viewBox="0 0 42 42" width="42" height="42">
	<title>transaction-type-icon-04-svg</title>
	<style>
		.s0 { fill: #7264d6 } 
	</style>
	<g id="Layer" style="opacity: .1">
		<path id="Layer" class="s0" d="m1 9c0-4.4 3.6-8 8-8h24c4.4 0 8 3.6 8 8v24c0 4.4-3.6 8-8 8h-24c-4.4 0-8-3.6-8-8z"/>
	</g>
	<path id="Layer" class="s0" d="m25.4 15.3l-1.8-3q-0.1-0.2-0.4-0.3-0.2 0-0.4 0.1l-5.4 3.2z"/>
	<path id="Layer" fill-rule="evenodd" class="s0" d="m27.7 16.2c0.9 0 1.6 0.7 1.6 1.6v1.7h-2.1c-2 0-3.7 1.7-3.7 3.7 0 2.1 1.7 3.8 3.7 3.8h2.1v1.7c0 0.9-0.7 1.6-1.6 1.6h-14.2c-1.4 0-2.5-1.1-2.5-2.5v-12.7q0-0.1 0-0.2c0.2-1.2 1.3-2.1 2.5-2.1h5.6l-2.8 1.7h-2.8c-0.5 0-0.8 0.4-0.8 0.8 0 0.5 0.3 0.9 0.8 0.9zm-0.8-0.9l-1.5-2.5c0.8 0.2 1.5 0.9 1.5 1.7z"/>
	<path id="Layer" fill-rule="evenodd" class="s0" d="m31 21.4v3.7c0 0.4-0.3 0.6-0.6 0.6h-3.2c-1.3 0-2.5-1.1-2.5-2.5 0-1.3 1.2-2.5 2.5-2.5h3.2c0.3 0 0.6 0.3 0.6 0.7zm-2.9 1.8c0-0.4-0.4-0.8-0.9-0.8-0.4 0-0.8 0.4-0.8 0.8 0 0.5 0.4 0.9 0.8 0.9 0.5 0 0.9-0.4 0.9-0.9z"/>
</svg>